<svg version="1.2" xmlns="http://www.w3.org/2000/svg" viewBox="0 0 3614 786" width="3614" height="786">
	<title>New Project</title>
	<style>
		.s0 { fill: #e57f24 } 
		.s1 { fill: #333333 } 
	</style>
	<path id="MealGo" class="s0" aria-label="MealGo"  d="m135.9 762h-88.3q-11.6 0-18.9-7.4-7.4-7.3-7.4-17.9v-684.9q0-11.6 7.4-18.9 7.3-7.4 18.9-7.4h83.1q14.7 0 22.1 8.4 7.3 7.4 9.4 11.6l203.1 378.8 205.1-378.8q2.1-4.2 9.4-11.6 7.4-8.4 22.1-8.4h82.1q11.5 0 18.9 7.4 7.4 7.3 7.4 18.9v684.9q0 10.6-7.4 17.9-7.4 7.4-18.9 7.4h-88.4q-11.6 0-18.9-7.4-6.3-7.3-6.3-17.9v-455.5l-147.3 280.9q-5.3 9.5-13.7 16.8-8.4 6.3-22.1 6.3h-43.1q-14.7 0-23.1-6.3-7.4-7.3-12.7-16.8l-147.2-280.9v455.5q0 10.6-7.4 17.9-7.3 7.4-17.9 7.4zm2510.9 10.5q-96.8 0-165.2-33.6-67.3-33.7-105.2-96.8-36.8-64.2-39.9-152.6-1.1-45.2-1.1-96.8 0-52.6 1.1-98.9 3.1-87.3 39.9-149.4 37.9-62.1 106.3-95.7 69.4-33.7 164.1-33.7 76.8 0 134.6 21 57.9 20 95.7 52.6 38.9 31.6 57.9 68.4 20 36.9 21 68.4 1.1 9.5-5.2 15.8-6.4 6.3-16.9 6.3h-108.3q-10.5 0-15.8-4.2-5.3-4.2-9.5-12.6-8.4-22.1-26.3-43.2-17.8-22.1-48.3-36.8-30.5-14.7-78.9-14.7-71.6 0-114.7 37.9-42.1 37.8-45.2 125.2-3.2 91.5 0 185.1 3.1 89.5 46.3 128.4 44.1 38.9 115.7 38.9 47.3 0 84.1-16.8 37.9-16.8 58.9-52.6 22.1-35.8 22.1-91.5v-32.7h-128.3q-10.5 0-17.9-7.3-7.4-7.4-7.4-19v-55.7q0-11.6 7.4-19 7.4-7.3 17.9-7.3h251.4q11.6 0 17.9 7.3 7.3 7.4 7.3 19v110.4q0 88.4-38.9 152.6-37.9 64.2-109.4 98.9-70.5 34.7-167.2 34.7z"/>
	<path id="MealGo" class="s1" aria-label="MealGo"  d="m1097.4 772.5q-116.8 0-185.2-67.3-68.3-67.4-73.6-191.5-1.1-10.5-1.1-26.3 0-16.8 1.1-26.3 4.2-80 35.8-136.8 32.6-57.9 89.4-88.4 56.8-31.5 133.6-31.5 85.2 0 143 35.7 57.9 34.8 87.3 97.9 29.5 62.1 29.5 144.1v22.1q0 10.6-7.4 17.9-7.4 7.4-18.9 7.4h-349.3q0 0 0 3.1 0 3.2 0 5.3 1.1 36.8 13.7 68.4 13.7 30.5 38.9 49.4 26.3 19 62.1 19 29.5 0 49.4-8.4 20-9.5 32.7-21.1 12.6-11.6 17.8-18.9 9.5-12.6 14.8-14.8 6.3-3.1 17.8-3.1h90.5q10.5 0 16.8 6.3 7.4 6.3 6.3 15.8-1 16.8-17.8 41-15.8 24.2-46.3 47.4-30.5 23.1-76.8 38.9-45.2 14.7-104.1 14.7zm-115.8-334.6v3.2h232.5v-3.2q0-41-13.7-71.5-13.6-31.6-39.9-48.4-26.3-17.9-63.1-17.9-36.9 0-63.2 17.9-26.3 16.8-39.9 48.4-12.7 30.5-12.7 71.5zm645.9 334.6q-54.7 0-98.9-21-44.2-22.1-70.5-57.9-25.2-36.8-25.2-82.1 0-73.6 60-116.7 59.9-44.2 156.7-59l144.1-21v-22.1q0-44.2-22.1-68.4-22.1-24.2-75.7-24.2-37.9 0-62.1 15.8-23.1 14.7-34.7 40-8.4 13.7-24.2 13.7h-83.1q-11.6 0-17.9-6.4-5.2-6.3-5.2-16.8 1-16.8 13.6-41 13.7-24.2 40-46.3 27.4-23.2 70.5-38.9 43.1-15.8 104.1-15.8 66.3 0 111.5 16.8 46.3 15.8 73.7 43.1 27.3 27.4 39.9 64.2 12.6 36.8 12.6 77.9v330.3q0 10.6-7.3 17.9-7.4 7.4-17.9 7.4h-85.2q-11.6 0-18.9-7.4-6.3-7.3-6.3-17.9v-41q-13.7 19-36.9 36.8-23.1 17.9-56.8 29.5-32.6 10.5-77.8 10.5zm35.8-99.9q36.8 0 66.2-15.8 30.5-15.8 47.4-48.4 17.8-33.7 17.8-84.2v-22.1l-105.1 16.9q-62.1 9.4-92.6 30.5-30.5 21-30.5 51.5 0 23.2 13.7 40 14.7 15.8 36.8 24.2 22.1 7.4 46.3 7.4zm519.6 89.4h-87.3q-10.5 0-17.9-7.4-7.4-7.3-7.4-17.9v-696.5q0-10.5 7.4-17.8 7.4-7.4 17.9-7.4h87.3q10.5 0 17.9 7.4 7.3 7.3 7.3 17.8v696.5q0 10.6-7.3 17.9-7.4 7.4-17.9 7.4zm1143.4 10.5q-84.2 0-142-29.4-56.8-29.5-87.3-83.2-29.5-53.6-33.7-125.2-1-18.9-1-46.3 0-27.3 1-46.2 4.2-72.6 34.7-125.2 31.6-53.7 88.4-83.2 57.8-29.4 139.9-29.4 82 0 138.8 29.4 57.9 29.5 88.4 83.2 31.5 52.6 35.7 125.2 1.1 18.9 1.1 46.2 0 27.4-1.1 46.3-4.2 71.6-34.7 125.2-29.4 53.7-87.3 83.2-56.8 29.4-140.9 29.4zm0-104.1q55.7 0 86.2-34.8 30.5-35.7 33.7-104.1 1-15.8 1-41.1 0-25.2-1-41-3.2-68.4-33.7-103.1-30.5-35.8-86.2-35.8-55.8 0-86.3 35.8-30.5 34.7-33.6 103.1-1.1 15.8-1.1 41 0 25.3 1.1 41.1 3.1 68.4 33.6 104.1 30.5 34.8 86.3 34.8z"/>
</svg>